<svg xmlns="http://www.w3.org/2000/svg" viewBox="0 0 158.43 354.19"><defs><style>.cls-1{fill:#fcf7f1;stroke:#f9ccba;stroke-miterlimit:10;}.cls-2{fill:#c84641;}.cls-3{fill:#f9ccba;}.cls-4{fill:#d09a90;}.cls-5{fill:#ef9353;}.cls-6{fill:#ab4c77;}.cls-7,.cls-8{fill:#bc322f;}.cls-8{font-size:37px;font-family:ACampusGrav, a_CampusGrav;}</style></defs><g id="Слой_2" data-name="Слой 2"><g id="Слой_9" data-name="Слой 9"><rect class="cls-1" x="-97.28" y="98.6" width="353" height="157" transform="translate(-97.98 256.1) rotate(-89.93)"/><polygon class="cls-2" points="114.57 40.95 114.37 23.8 129.36 15.46 144.55 24.27 144.76 41.42 129.77 49.76 114.57 40.95"/><polygon class="cls-2" points="121.86 47.81 111.99 33.78 119.64 18.42 137.15 17.1 147.02 31.13 139.37 46.49 121.86 47.81"/><path class="cls-2" d="M39.37,54.05c-2.6,0-2.59-4,0-4S42,54.09,39.37,54.05Z"/><path class="cls-2" d="M32.37,54c-2.6,0-2.59-4,0-4S35,54.08,32.37,54Z"/><rect class="cls-2" x="19.87" y="50.53" width="10" height="3" transform="translate(-27.19 76.83) rotate(-89.93)"/><rect class="cls-2" x="13.87" y="50.52" width="10" height="3" transform="translate(-33.18 70.83) rotate(-89.93)"/><rect class="cls-2" x="7.87" y="50.52" width="10" height="3" transform="translate(-39.16 64.82) rotate(-89.93)"/><rect class="cls-3" x="-22.27" y="86.6" width="202" height="157" transform="translate(-86.46 243.62) rotate(-89.93)"/><path class="cls-4" d="M108.31,119c-2.44,32.69-1.48,25.66-1.09,77,0,24.44.06,36.66,0,37-.64,2-2.4,7.06,0,10,5.22,4.44,12.06,3.32,12-6,.77-13,2.42-14.53,5-27,.19-5.31,2.27-12.87,3-17,.6-3.72-1.87-14.05-2-19a24.42,24.42,0,0,0-2-12c-1.74-6.45,3.09-8.64,2-17-.93-5.76-3.56-23.65-6-28-3.58-1.94,4.19-55.82-8.93-53-2.2-.07-3.51-.78-3,1,3,8.5.57,18,1,27C108.44,94.3,108.9,105.26,108.31,119Z"/><path class="cls-2" d="M25.32,89c-5.24,3.65-9.79-4.73-5-8,1-.37,1.5.39,3,0,.79-.2.61-.4,2-1,1-.42,4-1.31,3-1,9,3.6,9.5,15.26,9,24,.57,5.32-.9,15-4,21a3.75,3.75,0,0,0-3,4c-.21,3.18-.81,8.48,3,9,4.4,0,5.28-6.9,8,0,2.44,3.77,2.79,9.11,4,12,1.3,1,2.88-.54,7-1,4.7-.14,12.29,1.22,15-4,12.12-5.07,21.51.92,33,1,3.6-1,3-2,3-5-.25-.64,8.07-1.5,8-2,2.77-2.68,7.39.7,9,2v7c1.92,1.53,2.34,1.88,3,2,1.21,0,9.35-3.49,9-3-2.75.91,3.23-1.19,4-1,4.17,2.08,6.25,12.6,0,14,3,.1-3.59-.36-5,0-2.6,1.35-4.37,1-6,0-8.34-3.35-5.46,6.77-6,11-1.86,2.58-15.88,7.35-16,.45-.25-3.18-7.75-2.48-9-2.49-2.35.63-3.34-.33-5-1-2,.69-3.58,2.11-6,2-2.69.18-9.45,4.48-12,6-7.29,2.61-12.93,3.14-22,2-2.87-.55-5.68-1.46-8,0-3.48,2.2-4.13,8.46-2,11,2.62.92,4.35-2.38,7-1,4.18,5.25,1.29,7.15,2,19q0,30.49-.07,61a3.85,3.85,0,0,1-1,3c-1.65,1-6.28-1.2-8-2,.28-.54-9.53-.94-10-2-2-3.08-1.41-6.69,1-10,1.94-1.11,2.81-3.5,2-5-.22-6.09-.61-40.76.07-53,.11-.85.55-3.88-1-5-3-1.08-5.7,1.11-11-1-8.75-2.94-5.21-46.13-6.93-59-.53-7-.72-16.25,7-18.79,3-.61-1.39.38-2.95-1.21a5.41,5.41,0,0,1,7-8c1.88.86,2.25,2.21,3,2C29.57,105.09,28.51,90.24,25.32,89Z"/><path class="cls-5" d="M12.25,150c1.89-2.2,8.89,0,9,0h0v3c2.93,1.06,8.13-2.81,8,3,4.41,3.1,3.48-5.66,6-6-.15,2.48-6.08,10.58,2,5,3.74-1.6,12.35-4.43,16-2,0,.5-4.26-.06-9,2-8.79,4.65-7.19,3.86-16,4-.38.85.56,5.65,0,6-2.72,4.76-11.34,5.4-14,0-1-1.76-.39-2.44-1-7C12.51,152.49,11.27,151.15,12.25,150Z"/><path class="cls-5" d="M127.24,159.15c-1.34.53-1.63-.83-1-2a22.1,22.1,0,0,1,2-2c1.22,0,2.58.23,3-1,1,1.42,2.8,3.94,4,0,2.11052BAC5AF2"/><path class="cls-5" d="M114.23,167.14c-2.09.73-4.78,3.18-5,5,0-.51,3-4.67,4-7,.67-1.65-1.44-1.34-2-2-.53-1.25,3.17-3.67,3-40064CE4A70"/><path class="cls-5" d="M106.23,163.13c-1.26.2-3.38-9.59-2-11,.09,0,1.94-2.08,2-2,2.53-.36,1.88,1.17,4-3,.89-1.68,1.57-3.75,0075F46A40"/><path class="cls-5" d="M114.24,156.14c.3,1.53,2.17,2.4,3,2,.46-.22.26-.67,1-2,1.15-1.55,1.41-2.38,0-3A3,3,0,0,0,114.24,156.14Z"/><path class="cls-5" d="M111.24,154.13c2,.65,2.82-2.35,1-3C117.61,150.34,114.8,156.07,111.24,154.13Z"/><path class="cls-5" d="M99.24,153.12c2.21,2.44,4,9.06,3,12,0,.4-3.69-2.18-4-2-2.52-.41-6.56,4-9,5-5,0-7.62.39-12,4-2.94,2.70435EF4AAC"/><path class="cls-5" d="M72.23,167.09c-2,1.1-5.3,7.73-7,1,.93.48,2,5.86-1,6-.82-.44-2.24-2.7-3-3-2-1.47-6.92-1.33-8,0-.07.780B6F053A05"/><path class="cls-6" d="M99.11,261.9c-.32-34.39-3-22.8,34-24.74l0,29-29.78,0A4.24,4.24,0,0,1,99.11,261.9Z"/><path class="cls-6" d="M101.77,247.93c0-.2,0-.4-.08-.59l-7.76,4.18,8.77,3.94Z"/><rect class="cls-7" x="79.91" y="13.6" width="8" height="7" transform="translate(66.71 100.99) rotate(-89.93)"/><rect class="cls-7" x="62.87" y="43.6" width="42" height="7" transform="translate(36.67 130.92) rotate(-89.93)"/><text class="cls-8" transform="matrix(0, 1, -1, 0, 122.17, 57.33)">5000</text><text class="cls-8" transform="matrix(0, 1, -1, 0, 10.23, 265.61)">5000</text></g></g></svg>